<svg xmlns="http://www.w3.org/2000/svg" xmlns:svg="http://www.w3.org/2000/svg" xmlns:xlink="http://www.w3.org/1999/xlink" id="svg4031" width="48" height="48" version="1.1"><defs id="defs4033"><linearGradient id="linearGradient3820-7-2-1"><stop id="stop3822-2-6-3" offset="0" stop-color="#3d3d3d" stop-opacity="1"/><stop id="stop3864-8-7-7" offset=".5" stop-color="#686868" stop-opacity=".498"/><stop id="stop3824-1-2-5" offset="1" stop-color="#686868" stop-opacity="0"/></linearGradient><radialGradient id="radialGradient3018" cx="99.157" cy="186.171" r="62.769" fx="99.157" fy="186.171" gradientTransform="matrix(0.27083381,0,0,0.08762273,-2.855072,25.187228)" gradientUnits="userSpaceOnUse" xlink:href="#linearGradient3820-7-2-1"/><linearGradient id="linearGradient4011-7"><stop id="stop4013-4" offset="0" stop-color="#fff" stop-opacity="1"/><stop id="stop4015-61" offset=".508" stop-color="#fff" stop-opacity=".235"/><stop id="stop4017-2" offset=".835" stop-color="#fff" stop-opacity=".157"/><stop id="stop4019-2" offset="1" stop-color="#fff" stop-opacity=".392"/></linearGradient><linearGradient id="linearGradient8838-4"><stop id="stop8840-4" offset="0" stop-color="#000" stop-opacity="1"/><stop id="stop8842-8" offset="1" stop-color="#000" stop-opacity="0"/></linearGradient><linearGradient id="linearGradient3741" x1="71.204" x2="71.204" y1="7.831" y2="42.884" gradientTransform="matrix(0.5135135,0,0,0.5135135,-0.836132,22.978716)" gradientUnits="userSpaceOnUse" xlink:href="#linearGradient4011-7"/><radialGradient id="radialGradient3748" cx="62.625" cy="4.625" r="10.625" fx="62.625" fy="4.625" gradientTransform="matrix(1.1294118,0,0,0.2823525,-34.729414,43.694118)" gradientUnits="userSpaceOnUse" xlink:href="#linearGradient8838-4"/><linearGradient id="linearGradient4632-92-3-0-8-1-6-6"><stop id="stop4634-68-8-0-2-9-1-1" offset="0" stop-color="#fafafa" stop-opacity="1"/><stop id="stop4636-8-21-7-1-4-9-4" offset="1" stop-color="#e1e1e1" stop-opacity="1"/></linearGradient><radialGradient id="radialGradient3398" cx="6.275" cy="8.45" r="20" fx="6.275" fy="8.45" gradientTransform="matrix(0,1.2189437,-1.289497,-3.3177771e-8,46.896006,18.350992)" gradientUnits="userSpaceOnUse" xlink:href="#linearGradient4632-92-3-0-8-1-6-6"/><linearGradient id="linearGradient4200-6" x1="-95.838" x2="-95.838" y1="54.2" y2="5.176" gradientTransform="matrix(0.80749834,0,0,0.83374395,113.01159,-2.35899)" gradientUnits="userSpaceOnUse" xlink:href="#linearGradient3104-8-8-97-4-6-2-0-1-4-0-5-8-3-9-1"/><linearGradient id="linearGradient3104-8-8-97-4-6-2-0-1-4-0-5-8-3-9-1"><stop id="stop3106-5-4-3-5-0-1-61-9-2-7-3-3-2-6-9" offset="0" stop-color="#000" stop-opacity=".322"/><stop id="stop3108-4-3-7-8-2-4-01-9-9-0-6-4-3-7-7" offset="1" stop-color="#000" stop-opacity=".278"/></linearGradient><linearGradient id="linearGradient2867-449-88-871-390-598-476-591-434-148-57-177-3-8-8"><stop id="stop3750-8-9-0" offset="0" stop-color="#90dbec" stop-opacity="1"/><stop id="stop3752-3-2-2" offset=".262" stop-color="#42baea" stop-opacity="1"/><stop id="stop3754-7-2-2" offset=".705" stop-color="#3689e6" stop-opacity="1"/><stop id="stop3756-9-3-05" offset="1" stop-color="#2b63a0" stop-opacity="1"/></linearGradient><linearGradient id="linearGradient4011-8"><stop id="stop4013-9" offset="0" stop-color="#fff" stop-opacity="1"/><stop id="stop4015-2" offset=".508" stop-color="#fff" stop-opacity=".235"/><stop id="stop4017-28" offset=".835" stop-color="#fff" stop-opacity=".157"/><stop id="stop4019-23" offset="1" stop-color="#fff" stop-opacity=".392"/></linearGradient><linearGradient id="linearGradient3540" x1="71.204" x2="71.204" y1="6.238" y2="44.341" gradientTransform="matrix(1.054054,0,0,1.054054,-51.611004,-2.7279013)" gradientUnits="userSpaceOnUse" xlink:href="#linearGradient4011-8"/><radialGradient id="radialGradient3543" cx="1.198" cy="8.45" r="20" fx="1.198" fy="8.45" gradientTransform="matrix(0,5.0000024,-5.2894057,-1.3609237e-7,68.694364,-17.989501)" gradientUnits="userSpaceOnUse" xlink:href="#linearGradient2867-449-88-871-390-598-476-591-434-148-57-177-3-8-8"/><radialGradient id="radialGradient5521-1" cx="7.461" cy="9.957" r="12.672" fx="6.93" fy="9.957" gradientTransform="matrix(0,18.474386,-36.395415,0,387.22414,-152.02569)" gradientUnits="userSpaceOnUse" xlink:href="#linearGradient2867-449-88-871-390-598-476-591-434-148-57-177-3-8-8"/><radialGradient id="radialGradient5521-1-3" cx="7.461" cy="9.957" r="12.672" fx="6.93" fy="9.957" gradientTransform="matrix(0,18.474386,-36.395415,0,382.72413,-157.52569)" gradientUnits="userSpaceOnUse" xlink:href="#linearGradient2867-449-88-871-390-598-476-591-434-148-57-177-3-8-8"/></defs><metadata id="metadata4036"/><path id="path3818-0-5" fill="url(#radialGradient3018)" fill-opacity="1" stroke="none" d="m 40.999999,41.499999 a 17,5.4999999 0 1 1 -33.999999,0 17,5.4999999 0 1 1 33.999999,0 z"/><path id="path2555" fill="url(#radialGradient5521-1)" fill-opacity="1" fill-rule="nonzero" stroke="none" stroke-dasharray="none" stroke-dashoffset="0" stroke-linecap="butt" stroke-linejoin="miter" stroke-miterlimit="4" stroke-opacity="1" stroke-width="1" d="M 24.000003,3.4999978 C 12.68881,3.4999978 3.5,12.688804 3.5,23.999998 3.5,35.311192 12.68881,44.500003 24.000003,44.5 35.311191,44.5 44.500011,35.311192 44.5,23.999998 44.5,12.688804 35.311191,3.4999978 24.000003,3.4999978 z" clip-rule="nonzero" color="#000" color-interpolation="sRGB" color-interpolation-filters="linearRGB" color-rendering="auto" display="inline" enable-background="accumulate" image-rendering="auto" opacity="1" overflow="visible" shape-rendering="auto" text-rendering="auto" visibility="visible" style="marker:none;isolation:auto;mix-blend-mode:normal;solid-color:#000;solid-opacity:1;filter-blend-mode:normal;filter-gaussianBlur-deviation:0"/><path id="path8655-4" fill="none" stroke="url(#linearGradient3540)" stroke-dasharray="none" stroke-dashoffset="0" stroke-linecap="round" stroke-linejoin="round" stroke-miterlimit="4" stroke-opacity="1" stroke-width="1" d="m 43.5,23.999308 c 0,10.7699 -8.73109,19.50069 -19.499753,19.50069 C 13.230598,43.499998 4.5,34.769109 4.5,23.999308 4.5,13.229906 13.230598,4.4999998 24.000247,4.4999998 34.76891,4.4999998 43.5,13.229906 43.5,23.999308 l 0,0 z" color="#000" display="inline" enable-background="accumulate" opacity=".5" overflow="visible" visibility="visible" style="marker:none"/><path id="path2555-6-0" fill="#000" fill-opacity="0" fill-rule="nonzero" stroke="#004264" stroke-dasharray="none" stroke-dashoffset="0" stroke-linecap="round" stroke-linejoin="round" stroke-miterlimit="4" stroke-opacity="1" stroke-width="1" d="M 24.000003,3.4999976 C 12.68881,3.4999976 3.5,12.688804 3.5,23.999998 3.5,35.311192 12.68881,44.500003 24.000003,44.5 35.311191,44.5 44.500011,35.311192 44.5,23.999998 44.5,12.688804 35.311191,3.4999976 24.000003,3.4999976 z" clip-rule="nonzero" color="#000" color-interpolation="sRGB" color-interpolation-filters="linearRGB" color-rendering="auto" display="inline" enable-background="accumulate" image-rendering="auto" opacity=".4" overflow="visible" shape-rendering="auto" text-rendering="auto" visibility="visible" style="marker:none;isolation:auto;mix-blend-mode:normal;solid-color:#000;solid-opacity:1;filter-blend-mode:normal;filter-gaussianBlur-deviation:0"/><path id="path3483" fill="#000" fill-opacity="1" fill-rule="nonzero" stroke="none" stroke-dasharray="none" stroke-dashoffset="0" stroke-linecap="butt" stroke-linejoin="miter" stroke-miterlimit="4" stroke-opacity="1" stroke-width="1" d="m 26.042969,14.027344 c -2.362913,0 -4.402239,1.25303 -5.63086,3.08789 -0.572826,-0.227132 -1.122002,-0.519531 -1.773437,-0.519531 -2.784081,0 -5.058594,2.288712 -5.058594,5.080078 0,0.273385 0.06357,0.508437 0.105469,0.757813 -1.568835,1.310526 -2.658203,3.199353 -2.658203,5.404297 0,3.932344 3.180399,7.134765 7.099609,7.134765 l 11.746094,0 c 3.919213,0 7.099609,-3.202422 7.099609,-7.134765 0,-2.855323 -1.714085,-5.254905 -4.134765,-6.392579 0.01308,-0.179926 0.04883,-0.358245 0.04883,-0.539062 10e-7,-3.783502 -3.072233,-6.878906 -6.84375,-6.878906 z" clip-rule="nonzero" color="#000" color-interpolation="sRGB" color-interpolation-filters="linearRGB" color-rendering="auto" display="inline" enable-background="accumulate" image-rendering="auto" opacity=".05" overflow="visible" shape-rendering="auto" text-rendering="auto" visibility="visible" style="isolation:auto;mix-blend-mode:normal;solid-color:#000;solid-opacity:1;marker:none"/><path id="rect4519-8" fill="#000" fill-opacity="1" fill-rule="nonzero" stroke="none" stroke-dasharray="none" stroke-dashoffset="0" stroke-linecap="butt" stroke-linejoin="miter" stroke-miterlimit="4" stroke-opacity="1" stroke-width="1" d="m 26.04257,15.000002 c -2.273369,0 -4.242191,1.309233 -5.218085,3.209467 -0.632512,-0.404176 -1.381267,-0.641881 -2.186171,-0.641881 -2.256134,0 -4.085101,1.839224 -4.085101,4.108104 0,0.360717 0.05673,0.709701 0.14361,1.043049 -1.629457,1.105216 -2.696811,2.985449 -2.696811,5.119073 0,3.413834 2.732937,6.162186 6.127656,6.162186 l 11.744692,0 c 3.394722,0 6.127652,-2.748352 6.127652,-6.162186 0,-2.726084 -1.750031,-5.02443 -4.180858,-5.841211 0.06596,-0.354297 0.09575,-0.717625 0.09575,-1.091178 C 31.914904,17.643925 29.28578,15 26.042577,15 Z" clip-rule="nonzero" color="#000" color-interpolation="sRGB" color-interpolation-filters="linearRGB" color-rendering="auto" display="inline" enable-background="accumulate" image-rendering="auto" opacity=".15" overflow="visible" shape-rendering="auto" text-rendering="auto" visibility="visible" style="isolation:auto;mix-blend-mode:normal;solid-color:#000;solid-opacity:1;marker:none"/><path id="rect4519" fill="#fff" fill-opacity="1" fill-rule="nonzero" stroke="none" stroke-dasharray="none" stroke-dashoffset="0" stroke-linecap="butt" stroke-linejoin="miter" stroke-miterlimit="4" stroke-opacity="1" stroke-width="1" d="m 26.04257,14.000002 c -2.273369,0 -4.242191,1.309233 -5.218085,3.209467 -0.632512,-0.404176 -1.381267,-0.641881 -2.186171,-0.641881 -2.256134,0 -4.085101,1.839224 -4.085101,4.108104 0,0.360717 0.05673,0.709701 0.14361,1.043049 -1.629457,1.105216 -2.696811,2.985449 -2.696811,5.119073 0,3.413834 2.732937,6.162186 6.127656,6.162186 l 11.744692,0 c 3.394722,0 6.127652,-2.748352 6.127652,-6.162186 0,-2.726084 -1.750031,-5.02443 -4.180858,-5.841211 0.06596,-0.354297 0.09575,-0.717625 0.09575,-1.091178 C 31.914904,16.643925 29.28578,14 26.042577,14 Z" color="#000" display="inline" enable-background="accumulate" overflow="visible" visibility="visible" style="marker:none"/></svg>