<svg xmlns="http://www.w3.org/2000/svg" xmlns:svg="http://www.w3.org/2000/svg" xmlns:xlink="http://www.w3.org/1999/xlink" id="svg5157" width="128" height="128" version="1.1"><defs id="defs5159"><linearGradient id="linearGradient3820-7-2-8-6"><stop id="stop3822-2-6-5-0" offset="0" stop-color="#3d3d3d" stop-opacity="1"/><stop id="stop3864-8-7-4-1" offset=".5" stop-color="#686868" stop-opacity=".498"/><stop id="stop3824-1-2-6-7" offset="1" stop-color="#686868" stop-opacity="0"/></linearGradient><linearGradient id="linearGradient4806"><stop id="stop4808" offset="0" stop-color="#fff" stop-opacity="1"/><stop id="stop4810" offset=".424" stop-color="#fff" stop-opacity=".235"/><stop id="stop4812" offset=".821" stop-color="#fff" stop-opacity=".157"/><stop id="stop4814" offset="1" stop-color="#fff" stop-opacity=".392"/></linearGradient><linearGradient id="linearGradient3118" x1="71.204" x2="71.204" y1="15.369" y2="40.496" gradientTransform="matrix(4.16388,0,0,4.16388,-236.03265,-50.036246)" gradientUnits="userSpaceOnUse" xlink:href="#linearGradient4806"/><radialGradient id="radialGradient3163" cx="99.157" cy="186.171" r="62.769" fx="99.157" fy="186.171" gradientTransform="matrix(0.6869404,0,0,0.21461693,-4.02174,68.573331)" gradientUnits="userSpaceOnUse" xlink:href="#linearGradient3820-7-2-8-6"/><radialGradient id="radialGradient5521-1" cx="7.461" cy="9.957" r="12.672" fx="6.93" fy="9.957" gradientTransform="matrix(0,46.861858,-92.320077,0,985.84907,-380.50601)" gradientUnits="userSpaceOnUse" xlink:href="#linearGradient2867-449-88-871-390-598-476-591-434-148-57-177-3-8-8-9"/><linearGradient id="linearGradient2867-449-88-871-390-598-476-591-434-148-57-177-3-8-8-9"><stop id="stop3750-8-9-0" offset="0" stop-color="#90dbec" stop-opacity="1"/><stop id="stop3752-3-2-2" offset=".262" stop-color="#42baea" stop-opacity="1"/><stop id="stop3754-7-2-2" offset=".705" stop-color="#3689e6" stop-opacity="1"/><stop id="stop3756-9-3-05" offset="1" stop-color="#2b63a0" stop-opacity="1"/></linearGradient></defs><metadata id="metadata5162"/><path id="path3818-0-5-0" fill="url(#radialGradient3163)" fill-opacity="1" stroke="none" d="m 107.21186,108.52868 a 43.118644,13.471312 0 1 1 -86.237286,0 43.118644,13.471312 0 1 1 86.237286,0 z"/><path clip-rule="nonzero" style="isolation:auto;mix-blend-mode:normal;solid-color:#000;solid-opacity:1;marker:none" id="path2555" fill="url(#radialGradient5521-1)" fill-opacity="1" fill-rule="nonzero" stroke="none" stroke-dasharray="none" stroke-dashoffset="0" stroke-linecap="butt" stroke-linejoin="miter" stroke-miterlimit="4" stroke-opacity="1" stroke-width="1" d="m 64.500001,13.998178 c -28.691801,0 -51.999999,23.308181 -51.999999,52.000001 0,28.691803 23.308198,52.000001 51.999999,52.000001 28.691803,0 52.000039,-23.308198 51.999999,-52.000001 0,-28.69182 -23.308196,-52.000001 -51.999999,-52.000001 z" color="#000" color-interpolation="sRGB" color-interpolation-filters="linearRGB" color-rendering="auto" display="inline" enable-background="accumulate" image-rendering="auto" opacity="1" overflow="visible" shape-rendering="auto" text-rendering="auto" visibility="visible"/><path id="path2555-7-1" fill="#000" fill-opacity="0" fill-rule="nonzero" stroke="#004264" stroke-dasharray="none" stroke-dashoffset="0" stroke-linecap="round" stroke-linejoin="round" stroke-miterlimit="4" stroke-opacity="1" stroke-width="1" d="m 64.5,13.998179 c -28.691806,0 -52.000001,23.308189 -52.000001,51.999997 0,28.691808 23.308195,52.000014 52.000001,52.000004 28.691802,0 52.00002,-23.308196 52,-52.000004 0,-28.691808 -23.308198,-51.999997 -52,-51.999997 z" clip-rule="nonzero" color="#000" color-interpolation="sRGB" color-interpolation-filters="linearRGB" color-rendering="auto" display="inline" enable-background="accumulate" image-rendering="auto" opacity=".4" overflow="visible" shape-rendering="auto" text-rendering="auto" visibility="visible" style="marker:none;isolation:auto;mix-blend-mode:normal;solid-color:#000;solid-opacity:1;filter-blend-mode:normal;filter-gaussianBlur-deviation:0"/><path id="path3019" fill="none" stroke="url(#linearGradient3118)" stroke-dasharray="none" stroke-dashoffset="0" stroke-linecap="round" stroke-linejoin="round" stroke-miterlimit="4" stroke-opacity="1" stroke-width="1" d="m 115.5,65.998181 c 0,28.166516 -22.833502,50.999989 -51.000026,50.999989 -28.166487,0 -50.999973,-22.833473 -50.999973,-50.999989 0,-28.166517 22.833486,-50.999991 50.999973,-50.999991 28.166524,0 51.000026,22.833474 51.000026,50.999991 z" color="#000" display="inline" enable-background="accumulate" opacity=".5" overflow="visible" visibility="visible" style="marker:none"/><path clip-rule="nonzero" style="isolation:auto;mix-blend-mode:normal;solid-color:#000;solid-opacity:1;marker:none" id="path4419" fill="#000" fill-opacity="1" fill-rule="nonzero" stroke="none" stroke-dasharray="none" stroke-dashoffset="0" stroke-linecap="butt" stroke-linejoin="miter" stroke-miterlimit="4" stroke-opacity="1" stroke-width="1" d="m 69.605469,42.023438 c -5.718889,0 -10.644471,3.13757 -13.375,7.705078 C 54.68258,48.919214 52.965179,48.375 51.095703,48.375 c -6.165199,0 -11.189452,4.996049 -11.189453,11.138672 0,0.771803 0.153389,1.484287 0.304688,2.191406 -4.034719,2.949144 -6.6875,7.675989 -6.6875,13.050781 0,8.971145 7.286814,16.220704 16.294921,16.220703 l 29.363282,0 c 9.008124,0 16.294921,-7.249559 16.294921,-16.220703 0,-6.878166 -4.34321,-12.645968 -10.404296,-15.005859 0.09567,-0.708047 0.191406,-1.41536 0.191406,-2.142578 0,-8.598093 -7.025375,-15.583984 -15.658203,-15.583984 z" color="#000" color-interpolation="sRGB" color-interpolation-filters="linearRGB" color-rendering="auto" display="inline" enable-background="accumulate" image-rendering="auto" opacity=".05" overflow="visible" shape-rendering="auto" text-rendering="auto" visibility="visible"/><path id="rect4519-6" fill="#000" fill-opacity="1" fill-rule="nonzero" stroke="none" stroke-dasharray="none" stroke-dashoffset="0" stroke-linecap="butt" stroke-linejoin="miter" stroke-miterlimit="4" stroke-opacity="1" stroke-width="1" d="m 69.606388,43 c -5.683429,0 -10.605474,3.238631 -13.045215,7.939224 -1.581283,-0.999813 -3.453159,-1.587817 -5.465418,-1.587817 -5.640335,0 -10.212759,4.549652 -10.212759,10.162148 0,0.892303 0.141883,1.755573 0.359029,2.580178 -4.073648,2.733955 -6.742024,7.385058 -6.742024,12.662966 C 34.500001,83.20145 41.332343,90 49.819132,90 l 29.361721,0 c 8.486807,0 15.319148,-6.79855 15.319148,-15.243301 0,-6.743473 -4.375095,-12.428854 -10.452159,-14.449314 0.164824,-0.876411 0.239382,-1.775173 0.239382,-2.699227 C 84.287224,49.540242 77.714418,43 69.606406,43 Z" clip-rule="nonzero" color="#000" color-interpolation="sRGB" color-interpolation-filters="linearRGB" color-rendering="auto" display="inline" enable-background="accumulate" image-rendering="auto" opacity=".15" overflow="visible" shape-rendering="auto" text-rendering="auto" visibility="visible" style="marker:none;isolation:auto;mix-blend-mode:normal;solid-color:#000;solid-opacity:1;filter-blend-mode:normal;filter-gaussianBlur-deviation:0"/><path id="rect4519" fill="#fff" fill-opacity="1" fill-rule="nonzero" stroke="none" stroke-dasharray="none" stroke-dashoffset="0" stroke-linecap="butt" stroke-linejoin="miter" stroke-miterlimit="4" stroke-opacity="1" stroke-width="1" d="m 69.606388,42 c -5.683429,0 -10.605474,3.238631 -13.045215,7.939224 -1.581283,-0.999813 -3.453159,-1.587817 -5.465418,-1.587817 -5.640335,0 -10.212759,4.549652 -10.212759,10.162148 0,0.892303 0.141883,1.755573 0.359029,2.580178 -4.073648,2.733955 -6.742024,7.385058 -6.742024,12.662966 C 34.500001,82.20145 41.332343,89 49.819132,89 l 29.361721,0 c 8.486807,0 15.319148,-6.79855 15.319148,-15.243301 0,-6.743473 -4.375095,-12.428854 -10.452159,-14.449314 0.164824,-0.876411 0.239382,-1.775173 0.239382,-2.699227 C 84.287224,48.540242 77.714418,42 69.606406,42 Z" color="#000" display="inline" enable-background="accumulate" overflow="visible" visibility="visible" style="marker:none"/></svg>