<svg xmlns="http://www.w3.org/2000/svg" xmlns:svg="http://www.w3.org/2000/svg" xmlns:xlink="http://www.w3.org/1999/xlink" id="svg4505" width="32" height="32" version="1.1"><defs id="defs4507"><linearGradient id="linearGradient3820-7-2-2"><stop id="stop3822-2-6-36" offset="0" stop-color="#3d3d3d" stop-opacity="1"/><stop id="stop3864-8-7-6" offset=".5" stop-color="#686868" stop-opacity=".498"/><stop id="stop3824-1-2-4" offset="1" stop-color="#686868" stop-opacity="0"/></linearGradient><radialGradient id="radialGradient3043" cx="99.157" cy="186.171" r="62.769" fx="99.157" fy="186.171" gradientTransform="matrix(0.17524541,0,0,0.05575992,-1.37681,18.119145)" gradientUnits="userSpaceOnUse" xlink:href="#linearGradient3820-7-2-2"/><linearGradient id="linearGradient3012" x1="71.204" x2="71.204" y1="6.238" y2="44.341" gradientTransform="matrix(0.72972969,0,0,0.72972969,-36.346077,-2.5039312)" gradientUnits="userSpaceOnUse" xlink:href="#linearGradient4011"/><linearGradient id="linearGradient4011"><stop id="stop4013" offset="0" stop-color="#fff" stop-opacity="1"/><stop id="stop4015" offset=".508" stop-color="#fff" stop-opacity=".235"/><stop id="stop4017" offset=".835" stop-color="#fff" stop-opacity=".157"/><stop id="stop4019" offset="1" stop-color="#fff" stop-opacity=".392"/></linearGradient><linearGradient id="linearGradient2867-449-88-871-390-598-476-591-434-148-57-177-3-8-8"><stop id="stop3750-8-9-0" offset="0" stop-color="#90dbec" stop-opacity="1"/><stop id="stop3752-3-2-2" offset=".262" stop-color="#42baea" stop-opacity="1"/><stop id="stop3754-7-2-2-9" offset=".705" stop-color="#3689e6" stop-opacity="1"/><stop id="stop3756-9-3-05" offset="1" stop-color="#2b63a0" stop-opacity="1"/></linearGradient><radialGradient id="radialGradient5521-1" cx="7.461" cy="9.957" r="12.672" fx="6.93" fy="9.957" gradientTransform="matrix(0,13.067249,-25.743098,0,272.91463,-108.50598)" gradientUnits="userSpaceOnUse" xlink:href="#linearGradient2867-449-88-871-390-598-476-591-434-148-57-177-3-8-8"/></defs><metadata id="metadata4510"/><path id="path3818-0-2" fill="url(#radialGradient3043)" fill-opacity="1" stroke="none" d="m 27.000001,28.499999 a 11,3.4999999 0 1 1 -21.9999996,0 11,3.4999999 0 1 1 21.9999996,0 z"/><path clip-rule="nonzero" style="isolation:auto;mix-blend-mode:normal;solid-color:#000;solid-opacity:1;marker:none" id="path2555" fill="url(#radialGradient5521-1)" fill-opacity="1" fill-rule="nonzero" stroke="none" stroke-dasharray="none" stroke-dashoffset="0" stroke-linecap="butt" stroke-linejoin="miter" stroke-miterlimit="4" stroke-opacity="1" stroke-width="1" d="m 16,1.4999986 c -8.000599,0 -14.5,6.4993995 -14.5,14.5000004 0,8.0006 6.499401,14.500003 14.5,14.500001 8.000599,0 14.500005,-6.499401 14.5,-14.500001 C 30.5,7.9993981 24.000599,1.4999986 16,1.4999986 Z" color="#000" color-interpolation="sRGB" color-interpolation-filters="linearRGB" color-rendering="auto" display="inline" enable-background="accumulate" image-rendering="auto" opacity="1" overflow="visible" shape-rendering="auto" text-rendering="auto" visibility="visible"/><path id="path8655" fill="none" stroke="url(#linearGradient3012)" stroke-dasharray="none" stroke-dashoffset="0" stroke-linecap="round" stroke-linejoin="round" stroke-miterlimit="4" stroke-opacity="1" stroke-width="1" d="m 29.5,15.999521 c 0,7.456085 -6.044601,13.500478 -13.499829,13.500478 C 8.54426,29.499999 2.5,23.455537 2.5,15.999521 2.5,8.5437813 8.54426,2.5000003 16.000171,2.5000003 23.455399,2.5000003 29.5,8.5437813 29.5,15.999521 l 0,0 z" color="#000" display="inline" enable-background="accumulate" opacity=".5" overflow="visible" visibility="visible" style="marker:none"/><path id="path2555-6" fill="#000" fill-opacity="0" fill-rule="nonzero" stroke="#004264" stroke-dasharray="none" stroke-dashoffset="0" stroke-linecap="round" stroke-linejoin="round" stroke-miterlimit="4" stroke-opacity="1" stroke-width="1" d="M 16.000002,1.4999991 C 7.999402,1.4999991 1.5,7.9993984 1.5,15.999999 1.5,24.000599 7.999402,30.500002 16.000002,30.5 24.000599,30.5 30.500008,24.000599 30.5,15.999999 30.5,7.9993984 24.000599,1.4999991 16.000002,1.4999991 z" clip-rule="nonzero" color="#000" color-interpolation="sRGB" color-interpolation-filters="linearRGB" color-rendering="auto" display="inline" enable-background="accumulate" image-rendering="auto" opacity=".4" overflow="visible" shape-rendering="auto" text-rendering="auto" visibility="visible" style="marker:none;isolation:auto;mix-blend-mode:normal;solid-color:#000;solid-opacity:1;filter-blend-mode:normal;filter-gaussianBlur-deviation:0"/><path id="path4310" fill="#000" fill-opacity="1" fill-rule="nonzero" stroke="none" stroke-dasharray="none" stroke-dashoffset="0" stroke-linecap="butt" stroke-linejoin="miter" stroke-miterlimit="4" stroke-opacity="1" stroke-width="1" d="m 17.53125,9.0273438 c -1.770241,0 -3.227028,0.9613064 -4.207031,2.2792972 -0.438505,-0.162234 -0.852295,-0.386719 -1.345703,-0.386719 -2.2105881,0 -4.0371097,1.794184 -4.0371098,3.998047 0,0.176052 0.043572,0.319261 0.066406,0.480469 -1.1596057,1.010815 -1.9804687,2.412019 -1.9804687,4.060546 0,3.04359 2.506664,5.513672 5.5683592,5.513672 l 8.808594,0 c 3.061695,0 5.568359,-2.470082 5.568359,-5.513672 0,-2.146368 -1.277129,-3.951164 -3.085937,-4.859375 0.0033,-0.08217 0.02148,-0.166488 0.02148,-0.248047 0,-2.935037 -2.425379,-5.3242183 -5.376953,-5.3242182 z" clip-rule="nonzero" color="#000" color-interpolation="sRGB" color-interpolation-filters="linearRGB" color-rendering="auto" display="inline" enable-background="accumulate" image-rendering="auto" opacity=".05" overflow="visible" shape-rendering="auto" text-rendering="auto" transform="translate(0,-0.999656)" visibility="visible" style="isolation:auto;mix-blend-mode:normal;solid-color:#000;solid-opacity:1;marker:none"/><path id="rect4519-5" fill="#000" fill-opacity="1" fill-rule="nonzero" stroke="none" stroke-dasharray="none" stroke-dashoffset="0" stroke-linecap="butt" stroke-linejoin="miter" stroke-miterlimit="4" stroke-opacity="1" stroke-width="1" d="m 17.531918,9.000345 c -1.705029,0 -3.181649,0.964698 -3.913566,2.36487 -0.474384,-0.297813 -1.035953,-0.472965 -1.63963,-0.472965 -1.692101,0 -3.0638228,1.355219 -3.0638228,3.027025 0,0.265791 0.042566,0.522938 0.1077079,0.768562 C 7.8005186,15.502208 7,16.887642 7,18.459786 c 0,2.515456 2.049702,4.540558 4.595744,4.540558 l 8.808517,0 C 22.950303,23.000344 25,20.975242 25,18.459786 c 0,-2.008694 -1.312522,-3.702213 -3.135642,-4.304051 0.04945,-0.261061 0.07182,-0.528775 0.07182,-0.804025 0,-2.403211 -1.971848,-4.351366 -4.404252,-4.351366 z" clip-rule="nonzero" color="#000" color-interpolation="sRGB" color-interpolation-filters="linearRGB" color-rendering="auto" display="inline" enable-background="accumulate" image-rendering="auto" opacity=".15" overflow="visible" shape-rendering="auto" text-rendering="auto" visibility="visible" style="isolation:auto;mix-blend-mode:normal;solid-color:#000;solid-opacity:1;marker:none"/><path id="rect4519" fill="#fff" fill-opacity="1" fill-rule="nonzero" stroke="none" stroke-dasharray="none" stroke-dashoffset="0" stroke-linecap="butt" stroke-linejoin="miter" stroke-miterlimit="4" stroke-opacity="1" stroke-width="1" d="m 17.531918,8.000345 c -1.705029,0 -3.181649,0.9646983 -3.913566,2.36487 -0.474384,-0.297813 -1.035953,-0.472965 -1.63963,-0.472965 -1.692101,0 -3.0638228,1.355219 -3.0638228,3.027025 0,0.265791 0.042566,0.522938 0.1077079,0.768562 C 7.8005186,14.502208 7,15.887642 7,17.459786 c 0,2.515456 2.049702,4.540558 4.595744,4.540558 l 8.808517,0 C 22.950303,22.000344 25,19.975242 25,17.459786 c 0,-2.008694 -1.312522,-3.702213 -3.135642,-4.304051 0.04945,-0.261061 0.07182,-0.528775 0.07182,-0.804025 0,-2.403211 -1.971848,-4.351366 -4.404252,-4.351366 z" color="#000" display="inline" enable-background="accumulate" overflow="visible" visibility="visible" style="marker:none"/></svg>