<svg xmlns="http://www.w3.org/2000/svg" xmlns:svg="http://www.w3.org/2000/svg" xmlns:xlink="http://www.w3.org/1999/xlink" id="svg3489" width="64" height="64" version="1.1"><defs id="defs3491"><linearGradient id="linearGradient4806"><stop id="stop4808" offset="0" stop-color="#fff" stop-opacity="1"/><stop id="stop4810" offset=".424" stop-color="#fff" stop-opacity=".235"/><stop id="stop4812" offset=".821" stop-color="#fff" stop-opacity=".157"/><stop id="stop4814" offset="1" stop-color="#fff" stop-opacity=".392"/></linearGradient><linearGradient id="linearGradient3293" x1="71.204" x2="71.204" y1="15.369" y2="40.496" gradientTransform="matrix(2.3268746,0,0,2.3268746,-135.94475,-32.842783)" gradientUnits="userSpaceOnUse" xlink:href="#linearGradient4806"/><linearGradient id="linearGradient23419"><stop id="stop23421" offset="0" stop-color="#000" stop-opacity="1"/><stop id="stop23423" offset="1" stop-color="#000" stop-opacity="0"/></linearGradient><linearGradient id="linearGradient2867-449-88-871-390-598-476-591-434-148-57-177-3-8-8-9"><stop id="stop3750-8-9-0" offset="0" stop-color="#90dbec" stop-opacity="1"/><stop id="stop3752-3-2-2" offset=".262" stop-color="#42baea" stop-opacity="1"/><stop id="stop3754-7-2-2" offset=".705" stop-color="#3689e6" stop-opacity="1"/><stop id="stop3756-9-3-05" offset="1" stop-color="#2b63a0" stop-opacity="1"/></linearGradient><radialGradient id="radialGradient3300-9" cx="99.189" cy="185.297" r="62.769" fx="99.189" fy="185.297" gradientTransform="matrix(0.3823536,7.5555777e-8,-1.8372241e-8,0.1115198,-5.9254271,36.335849)" gradientUnits="userSpaceOnUse" xlink:href="#linearGradient23419"/><radialGradient id="radialGradient4192" cx="99.189" cy="185.297" r="62.769" fx="99.189" fy="185.297" gradientTransform="matrix(0.2549024,5.3967361e-8,-1.2248161e-8,0.07965545,6.7163816,44.240666)" gradientUnits="userSpaceOnUse" xlink:href="#linearGradient23419"/><radialGradient id="radialGradient5521-1" cx="7.461" cy="9.957" r="12.672" fx="6.93" fy="9.957" gradientTransform="matrix(0,26.585092,-52.37389,0,554.6884,-221.30526)" gradientUnits="userSpaceOnUse" xlink:href="#linearGradient2867-449-88-871-390-598-476-591-434-148-57-177-3-8-8-9"/></defs><metadata id="metadata3494"/><g id="g4198" transform="translate(1.55e-6,-0.00183192)"><path id="path3818-0" fill="url(#radialGradient3300-9)" fill-opacity="1" stroke="none" d="m 55.999998,57.0017 a 24,6.9985714 0 1 1 -47.9999991,0 24,6.9985714 0 1 1 47.9999991,0 z" opacity=".2"/><path id="path4190" fill="url(#radialGradient4192)" fill-opacity="1" stroke="none" d="m 47.999998,59.0017 a 16,4.9988822 0 1 1 -31.999999,0 16,4.9988822 0 1 1 31.999999,0 z" opacity=".4"/></g><path id="path2555" fill="url(#radialGradient5521-1)" fill-opacity="1" fill-rule="nonzero" stroke="none" stroke-dasharray="none" stroke-dashoffset="0" stroke-linecap="butt" stroke-linejoin="miter" stroke-miterlimit="4" stroke-opacity="1" stroke-width="1" d="m 32.000008,2.4999963 c -16.277082,0 -29.500004,13.2229157 -29.500004,29.4999997 0,16.277084 13.222922,29.500007 29.500004,29.500003 16.277076,0 29.500012,-13.222919 29.499996,-29.500003 0,-16.277084 -13.22292,-29.4999997 -29.499996,-29.4999997 z" clip-rule="nonzero" color="#000" color-interpolation="sRGB" color-interpolation-filters="linearRGB" color-rendering="auto" display="inline" enable-background="accumulate" image-rendering="auto" opacity="1" overflow="visible" shape-rendering="auto" text-rendering="auto" visibility="visible" style="isolation:auto;mix-blend-mode:normal;solid-color:#000;solid-opacity:1;marker:none"/><path id="path3019" fill="none" stroke="url(#linearGradient3293)" stroke-dasharray="none" stroke-dashoffset="0" stroke-linecap="round" stroke-linejoin="round" stroke-miterlimit="4" stroke-opacity="1" stroke-width="1" d="m 60.50001,31.999999 c 0,15.740115 -12.7599,28.499999 -28.50002,28.499999 -15.740099,0 -28.499991,-12.759884 -28.499991,-28.499999 0,-15.740116 12.759892,-28.5000013 28.499991,-28.5000013 15.74012,0 28.50002,12.7598853 28.50002,28.5000013 z" color="#000" display="inline" enable-background="accumulate" opacity=".5" overflow="visible" visibility="visible" style="marker:none"/><path id="path2555-7-1" fill="#000" fill-opacity="0" fill-rule="nonzero" stroke="#004264" stroke-dasharray="none" stroke-dashoffset="0" stroke-linecap="round" stroke-linejoin="round" stroke-miterlimit="4" stroke-opacity="1" stroke-width="1" d="m 32,2.499999 c -16.277082,0 -29.5,13.222915 -29.5,29.499998 0,16.277083 13.222918,29.500005 29.5,29.5 16.27708,0 29.50001,-13.222917 29.5,-29.5 C 61.5,15.722914 48.27708,2.499999 32,2.499999 z" clip-rule="nonzero" color="#000" color-interpolation="sRGB" color-interpolation-filters="linearRGB" color-rendering="auto" display="inline" enable-background="accumulate" image-rendering="auto" opacity=".4" overflow="visible" shape-rendering="auto" text-rendering="auto" visibility="visible" style="marker:none;isolation:auto;mix-blend-mode:normal;solid-color:#000;solid-opacity:1;filter-blend-mode:normal;filter-gaussianBlur-deviation:0"/><path clip-rule="nonzero" style="isolation:auto;mix-blend-mode:normal;solid-color:#000;solid-opacity:1;marker:none" id="path4298" fill="#000" fill-opacity="1" fill-rule="nonzero" stroke="none" stroke-dasharray="none" stroke-dashoffset="0" stroke-linecap="butt" stroke-linejoin="miter" stroke-miterlimit="4" stroke-opacity="1" stroke-width="1" d="m 34.894531,18.019531 c -3.260662,0 -6.068179,1.75504 -7.726562,4.31836 -0.851746,-0.391386 -1.767244,-0.669922 -2.763672,-0.669922 -3.730916,0 -6.767579,3.068699 -6.767578,6.818359 0,0.389657 0.08489,0.736742 0.148437,1.095703 -2.274875,1.783122 -3.765625,4.536543 -3.765625,7.66211 0,5.373204 4.32202,9.736328 9.66211,9.736328 l 16.636718,0 c 5.340095,0 9.66211,-4.363125 9.66211,-9.736328 0,-4.00207 -2.441843,-7.360468 -5.875,-8.855469 0.03354,-0.331301 0.08789,-0.659839 0.08789,-0.996094 0,-5.16014 -4.169476,-9.373047 -9.298828,-9.373047 z" color="#000" color-interpolation="sRGB" color-interpolation-filters="linearRGB" color-rendering="auto" display="inline" enable-background="accumulate" image-rendering="auto" opacity=".05" overflow="visible" shape-rendering="auto" text-rendering="auto" visibility="visible"/><path id="rect4519-3" fill="#000" fill-opacity="1" fill-rule="nonzero" stroke="none" stroke-dasharray="none" stroke-dashoffset="0" stroke-linecap="butt" stroke-linejoin="miter" stroke-miterlimit="4" stroke-opacity="1" stroke-width="1" d="m 34.893624,19.000003 c -3.220606,0 -6.009771,1.860489 -7.392288,4.560821 -0.896058,-0.574355 -1.956794,-0.912146 -3.097075,-0.912146 -3.19619,0 -5.787227,2.613634 -5.787227,5.837832 0,0.512597 0.08037,1.008522 0.203447,1.482227 C 16.512085,31.539307 15,34.211218 15,37.24321 15,42.094447 18.871661,46 23.680846,46 l 16.638313,0 C 45.128349,46 49,42.094447 49,37.24321 49,33.3693 46.520789,30.10323 43.077118,28.942541 43.170558,28.439066 43.212764,27.922759 43.212764,27.39192 43.212764,22.757157 39.488171,19 34.893633,19 Z" clip-rule="nonzero" color="#000" color-interpolation="sRGB" color-interpolation-filters="linearRGB" color-rendering="auto" display="inline" enable-background="accumulate" image-rendering="auto" opacity=".15" overflow="visible" shape-rendering="auto" text-rendering="auto" visibility="visible" style="marker:none;isolation:auto;mix-blend-mode:normal;solid-color:#000;solid-opacity:1;filter-blend-mode:normal;filter-gaussianBlur-deviation:0"/><path id="rect4519" fill="#fff" fill-opacity="1" fill-rule="nonzero" stroke="none" stroke-dasharray="none" stroke-dashoffset="0" stroke-linecap="butt" stroke-linejoin="miter" stroke-miterlimit="4" stroke-opacity="1" stroke-width="1" d="m 34.893624,18.000003 c -3.220606,0 -6.009771,1.860489 -7.392288,4.560821 -0.896058,-0.574355 -1.956794,-0.912146 -3.097075,-0.912146 -3.19619,0 -5.787227,2.613634 -5.787227,5.837832 0,0.512597 0.08037,1.008522 0.203447,1.482227 C 16.512085,30.539307 15,33.211218 15,36.24321 15,41.094447 18.871661,45 23.680846,45 l 16.638313,0 C 45.128349,45 49,41.094447 49,36.24321 49,32.3693 46.520789,29.10323 43.077118,27.942541 43.170558,27.439066 43.212764,26.922759 43.212764,26.39192 43.212764,21.757157 39.488171,18 34.893633,18 Z" color="#000" display="inline" enable-background="accumulate" overflow="visible" visibility="visible" style="marker:none"/></svg>